<?xml version="1.0" standalone="no"?>
<!DOCTYPE svg PUBLIC "-//W3C//DTD SVG 20010904//EN"
 "http://www.w3.org/TR/2001/REC-SVG-20010904/DTD/svg10.dtd">
<svg version="1.0" xmlns="http://www.w3.org/2000/svg"
 width="700.000000pt" height="700.000000pt" viewBox="0 0 700.000000 700.000000"
 preserveAspectRatio="xMidYMid meet">
<metadata>
Created by potrace 1.14, written by Peter Selinger 2001-2017
</metadata>
<g transform="translate(0.000000,700.000000) scale(0.100000,-0.100000)"
fill="#000000" stroke="none">
<path d="M3279 6996 c-2 -2 -40 -6 -84 -10 -87 -7 -143 -13 -190 -21 -16 -2
-48 -7 -70 -10 -35 -5 -84 -14 -160 -29 -304 -61 -715 -217 -1000 -379 -64
-36 -312 -197 -344 -223 -9 -7 -52 -41 -96 -75 -44 -34 -120 -98 -169 -143
-451 -408 -758 -868 -969 -1451 -44 -119 -104 -333 -121 -430 -3 -16 -8 -40
-10 -52 -3 -11 -8 -43 -12 -70 -5 -26 -9 -50 -9 -53 -1 -3 -5 -32 -9 -65 -5
-33 -10 -68 -12 -79 -18 -98 -25 -531 -11 -700 9 -107 20 -191 48 -351 28
-162 135 -536 183 -640 8 -16 26 -59 41 -95 15 -36 54 -119 87 -185 214 -428
496 -785 884 -1120 88 -76 440 -325 460 -325 2 0 22 -11 45 -25 54 -35 255
-136 359 -180 242 -105 577 -202 825 -240 214 -32 307 -39 535 -40 266 0 384
9 607 46 901 150 1708 653 2252 1404 97 134 102 142 200 311 69 120 171 326
186 374 4 14 11 30 15 35 9 11 21 43 80 218 81 237 144 533 168 792 15 163 7
618 -13 750 -17 115 -38 237 -47 275 -5 25 -12 55 -14 66 -53 274 -221 703
-380 971 -33 54 -61 103 -64 108 -11 22 -136 203 -183 265 -189 247 -437 494
-672 669 -107 80 -215 155 -259 181 -17 10 -82 47 -144 84 -62 36 -117 66
-121 66 -5 0 -28 11 -52 24 -73 41 -266 121 -409 169 -115 39 -157 52 -235 73
-5 2 -71 16 -145 33 -146 32 -181 38 -325 56 -33 3 -71 9 -85 12 -30 5 -555
14 -561 9z"/>
</g>
</svg>
